#!OML:ASF X:\für Bonn\!DataBase\2005_08_12_Daniel\c3d\Daniel.ASF
:FULLY-SPECIFIED
:DEGREES
340
root 1.84 17.4073 -12.9194 349.869 21.1198 -1.51956
lowerback 25.4514 -1.79733 -2.74253
upperback 5.28124 -3.28306 -3.40093
thorax -8.3258 -1.49341 -1.14456
lowerneck -0.870793 -4.12172 -4.27147
upperneck 15.0099 -6.49906 8.77634
head 5.05423 -2.91516 3.12448
rclavicle -2.38542e-015 2.70347e-014
rhumerus -23.5017 7.98712 -94.6378
rradius 60.2563
rwrist -52.1297
rhand 1.45621 10.6576
rfingers 7.12502
rthumb 26.9844 -17.4352
lclavicle -2.38542e-015 2.70347e-014
lhumerus -21.9305 36.8893 72.7372
lradius 20.5885
lwrist -32.7122
lhand -12.4494 -7.16153
lfingers 7.12502
lthumb 13.6239 22.3726
rfemur -14.0072 -3.64574 17.8111
rtibia 60.1891
rfoot -10.1613 -365.698
rtoes -7.91883
lfemur -1.2913 -9.77063 -23.4327
ltibia 37.6111
lfoot -27.3259 -4.69773
ltoes -4.65196
341
root 1.8606 17.4107 -12.8783 349.911 21.1954 -1.42246
lowerback 25.1188 -1.87773 -2.97323
upperback 5.16928 -3.44273 -3.42659
thorax -8.26928 -1.56707 -0.997919
lowerneck -0.841505 -4.14554 -4.34031
upperneck 15.1825 -6.55846 8.88912
head 5.11188 -2.93916 3.16888
rclavicle -1.43125e-014 1.59028e-015
rhumerus -23.7657 7.46294 -94.6655
rradius 61.2154
rwrist -52.5377
rhand 1.75183 10.8061
rfingers 7.12502
rthumb 27.2672 -17.2426
lclavicle -1.43125e-014 1.59028e-015
lhumerus -21.9888 37.1383 72.4787
lradius 20.2739
lwrist -33.3156
lhand -12.5417 -7.10266
lfingers 7.12502
lthumb 13.5349 22.4374
rfemur -14.4753 -3.90704 17.842
rtibia 60.7605
rfoot -9.8462 -365.023
rtoes -8.09384
lfemur -0.852604 -9.96828 -23.6525
ltibia 37.216
lfoot -27.4939 -4.49039
ltoes -4.77478
342
root 1.88185 17.4137 -12.8367 349.969 21.2745 -1.30191
lowerback 24.7693 -1.95012 -3.19971
upperback 5.07917 -3.58868 -3.46935
thorax -8.1793 -1.63498 -0.87907
lowerneck -0.868564 -4.19654 -4.37044
upperneck 15.3608 -6.65746 9.0047
head 5.18289 -2.97854 3.20427
rclavicle -2.78299e-015 6.36111e-015
rhumerus -23.9901 6.89177 -94.686
rradius 62.2172
rwrist -52.7947
rhand 1.99706 10.9976
rfingers 7.12502
rthumb 27.5018 -17.014
lclavicle -2.78299e-015 6.36111e-015
lhumerus -22.0181 37.3591 72.2557
lradius 19.9935
lwrist -33.9696
lhand -12.5939 -7.08934
lfingers 7.12502
lthumb 13.4846 22.4541
rfemur -14.9621 -4.21467 17.8383
rtibia 61.2883
rfoot -9.49021 -364.107
rtoes -8.12209
lfemur -0.430159 -10.1912 -23.9033
ltibia 36.8282
lfoot -27.6725 -4.30272
ltoes -4.8644
343
root 1.90213 17.4158 -12.7952 350.017 21.3354 -1.22223
lowerback 24.4472 -2.02533 -3.3931
upperback 4.96622 -3.7297 -3.49169
thorax -8.12782 -1.70057 -0.758331
lowerneck -0.856046 -4.24426 -4.39906
upperneck 15.547 -6.74857 9.08482
head 5.2481 -3.01673 3.22963
rclavicle 4.13472e-014 1.74931e-014
rhumerus -24.2256 6.33953 -94.7067
rradius 63.2225
rwrist -52.9785
rhand 2.25083 11.1135
rfingers 7.12502
rthumb 27.7444 -16.8593
lclavicle 4.13472e-014 1.74931e-014
lhumerus -22.0971 37.504 72.021
lradius 19.7189
lwrist -34.507
lhand -12.588 -7.05392
lfingers 7.12502
lthumb 13.4903 22.4892
rfemur -15.468 -4.51178 17.8866
rtibia 61.7746
rfoot -9.1524 -363.033
rtoes -8.29039
lfemur -0.0324448 -10.3662 -24.0991
ltibia 36.4691
lfoot -27.8477 -4.10732
ltoes -5.06669
344
root 1.92317 17.417 -12.7551 350.063 21.4019 -1.12437
lowerback 24.152 -2.10014 -3.57205
upperback 4.86023 -3.86758 -3.52749
thorax -8.08299 -1.76483 -0.661995
lowerneck -0.817 -4.29276 -4.41931
upperneck 15.6935 -6.84321 9.19331
head 5.29753 -3.05607 3.2629
rclavicle -1.59028e-015 0
rhumerus -24.4644 5.87652 -94.6891
rradius 64.2765
rwrist -53.2392
rhand 2.40385 11.1585
rfingers 7.12502
rthumb 27.8908 -16.7906
lclavicle -1.59028e-015 0
lhumerus -22.1994 37.3577 71.8516
lradius 19.5326
lwrist -34.7677
lhand -12.6018 -6.95599
lfingers 7.12502
lthumb 13.477 22.588
rfemur -15.967 -4.83653 17.9133
rtibia 62.2096
rfoot -8.79565 -361.881
rtoes -8.45602
lfemur 0.366189 -10.5347 -24.3098
ltibia 36.1288
lfoot -28.0281 -3.96722
ltoes -5.2948
345
root 1.94299 17.4172 -12.7158 350.127 21.4946 -1.00668
lowerback 23.8567 -2.18137 -3.77569
upperback 4.7702 -4.01722 -3.56031
thorax -8.01698 -1.83448 -0.546301
lowerneck -0.815685 -4.35398 -4.42888
upperneck 15.841 -6.95079 9.26816
head 5.35355 -3.10195 3.28212
rclavicle -6.30147e-014 -3.49861e-014
rhumerus -24.6521 5.47012 -94.6376
rradius 65.2653
rwrist -53.5037
rhand 2.62585 11.2519
rfingers 7.12502
rthumb 28.103 -16.6625
lclavicle -6.30147e-014 -3.49861e-014
lhumerus -22.2551 37.0886 71.7394
lradius 19.3695
lwrist -34.8313
lhand -12.5948 -6.89845
lfingers 7.12502
lthumb 13.4838 22.6451
rfemur -16.4774 -5.17955 17.9165
rtibia 62.5857
rfoot -8.42569 -360.599
rtoes -8.44789
lfemur 0.724609 -10.6862 -24.5327
ltibia 35.8171
lfoot -28.2101 -3.82025
ltoes -5.56547
